<svg xmlns="http://www.w3.org/2000/svg" viewBox="0 0 300 300"><circle cx="150" cy="150" r="150" fill="#FDE8E5"/>
  <clipPath id="c"><circle cx="150" cy="150" r="150"/></clipPath><g clip-path="url(#c)">
  <path d="M40 320 Q45 215 150 205 Q255 215 260 320Z" fill="#E5574B"/>
  <rect x="132" y="170" width="36" height="45" rx="14" fill="#F3D2B3"/>
  <path d="M80 150 Q78 60 150 58 Q222 60 220 150 L205 160 L95 160Z" fill="#14141C"/>
  <ellipse cx="150" cy="122" rx="52" ry="58" fill="#F3D2B3"/>
  
  <path d="M96 112 Q100 62 150 62 Q200 62 204 112 Q170 92 96 112Z" fill="#14141C"/>
  <circle cx="130" cy="125" r="5" fill="#1A2233"/><circle cx="170" cy="125" r="5" fill="#1A2233"/>
  
  <path d="M130 150 Q150 168 170 150" fill="none" stroke="#1A2233" stroke-width="5" stroke-linecap="round"/>
  </g></svg>